<?xml version="1.0" encoding="UTF-8"?>
<svg id="Layer_1" data-name="Layer 1" xmlns="http://www.w3.org/2000/svg" viewBox="0 0 80 40">
  <defs>
    <style>
      .cls-1 {
        fill: #45386d;
      }

      .cls-2 {
        fill: #425b93;
      }
    </style>
  </defs>
  <rect class="cls-1" x="6.54" y="7.19" width="14.85" height="4.35"/>
  <rect class="cls-1" x="6.54" y="21.62" width="14.85" height="4.35"/>
  <polygon class="cls-1" points="6.54 14.3 18.64 14.3 16.21 17.59 6.54 17.59 6.54 14.3"/>
  <path class="cls-2" d="M5.81,8.13l-3.48,6.89v6.53l1.89-3.26h.22s-2.11,4.23-2.11,4.23v5.92l2.25-3.34v.42s-1.57,3.48-1.53,3.52,0,.4,0,.4h.68l2.07-3.31,.05-4.51-2.58,2.94-.25-.24,2.59-5.12,.21-.46,.03-4.4-1.9,2.32-.22-.46,2.12-3.99v-4.09"/>
  <path d="M57,21.56c-.7-1.14-.63-1.71,.46-3.77-1.75,.63-2.21,2.62-3.66,3.69-.64-.52-.29-1.14-.37-1.46,.94-1.52,1.79-2.9,2.64-4.28-.07-.06-.14-.11-.21-.17-1.31,1.5-2.79,2.93-3.85,4.61-.56,1.42-2,1.39-1.8-.35,1.19-1.34,2.43-2.62,2.99-4.42-1.67-.27-2.34,1.71-4,1.23-.11-1.16,.54-1.87,1.52-2.47,.03,.15,.05,.26,.07,.39,.97-.31,1.96-.63,2.82-.91,1.09,.75,.8,1.58,.48,2.45,1.1-.76,1.69-2.22,3.27-2.18,.73,1.08-.12,1.86-.49,2.94,1.37-1.1,2.56-2.06,3.72-3,2.5,1.91-3.61,4-2.38,6.75,1.06-.36,1.73-1.27,2.66-1.73-.2,1.31-2.26,2.76-3.87,2.69Z"/>
  <path d="M48.75,14.64c.17,1.4-1.55,1.82-1.74,3.04,.35,.05,.7,.1,1.16,.17-.46,.54-.85,1-1.22,1.43-.53,.12-1.03,.24-1.54,.35-.07,.54-.12,.97-.17,1.44-.39,.1-.77,.2-1.13,.29-.54-.77,.3-1.29,.23-1.96-1.98-.38-2.03,1.1-3.38,2.14-1.14-.67,.32-1.24-.01-1.89-.15-.04-.37-.09-.72-.18,.11-.37,.21-.72,.31-1.06,2.26,.2,3.63-1.48,4.82-3.15-1.9-.96-4.16,1.7-6.12,1.97-.93-2.84,5.08-3.66,7.06-3.23,1.03,1.53-1.02,2.5-1.69,3.7h1.2c.88-1.05,1.77-2.12,2.67-3.19,.09,.04,.18,.09,.27,.13Z"/>
  <path d="M62.96,19.88c1.87,1.45,3.86-.41,5.74-.94,.25,2.55-3.52,2.99-5.42,2.76-3.29-.93,.12-3.86,2.14-4.08-.88-.33-1.56-.58-2.27-.85-.02-.39-.03-.72-.05-1,1.5-2.13,3.22-2.21,6.57-1.98,.09,.25,.19,.55,.34,1-.8,.39-1.55,.75-2.3,1.11-.05-.03-.09-.06-.14-.1,.12-.21,.23-.43,.41-.74-1.28,.33-2.67,.07-3.71,1.34,1.41,.7,2.89,.07,4.45,.5-1.47,1.88-3.92,.9-5.76,2.98Z"/>
  <path d="M29.59,16.75c-.86,2.25-3.7,.86-5.52,3.15,1.76,1.38,3.81-.32,5.57-.96,.41,2.62-3.66,3.05-5.56,2.7-2.96-1.45,.62-3.68,2.43-4.07-.85-.29-1.63-.55-2.35-.79,.05-3.24,4.03-3.29,6.42-3.02,.75,1.61-.92,1.65-2.02,2.04,.11-.2,.23-.4,.34-.6-1.28,.02-2.99-.02-3.52,1.56h4.2Z"/>
  <path d="M77.39,13.53c.24,.09,.43,.32,.45,.58,.19,1.85-3.43,5.48-4.72,4,.8-1.9,3.53-1.79,3.61-4.25-2.12,1.06-3.64,2.64-4.97,4.61-.04,.07-.49,.89-.4,1.46s.73,.9,.92,.94c2,.34,3.21-1.53,5.07-2.52-.88,2.83-8.21,6.2-7.17,.89,.78-2.47,4.38-6.78,7.21-5.7Z"/>
  <path d="M29.97,21.09c.79-2.5,1.83-.71,3.06-2.43,1.6-1.51,2.9-4.7,5.34-4.68,.14,.62,.17,1.19-.3,1.77-.64,.85-.89,2.89-2.46,2.28,.24-.59,.48-1.18,.71-1.76-.04-.04-.08-.07-.12-.11-.94,1.08-1.88,2.16-2.82,3.23,1.49,.03,2.77,.45,3.98,1.09-.76,1.06-1.22,1.18-2.41,.89-1.65-.64-3.31-.23-4.99-.28Z"/>
  <path d="M7.36,31.84h-.83v-.29h2v.29h-.83v2.44h-.35v-2.44Z"/>
  <path d="M9.44,31.54h.86c.56,0,.96,.2,.96,.77s-.4,.81-.96,.81h-.51v1.16h-.35v-2.73Zm.81,1.3c.43,0,.66-.17,.66-.53s-.23-.49-.66-.49h-.46v1.01h.46Zm-.02,.19l.27-.18,.83,1.43h-.39l-.71-1.25Z"/>
  <path d="M12.77,31.54h.39l.92,2.73h-.37l-.48-1.53c-.1-.31-.19-.61-.27-.92h-.02c-.08,.32-.17,.62-.27,.92l-.48,1.53h-.35l.92-2.73Zm-.44,1.62h1.26v.28h-1.26v-.28Z"/>
  <path d="M14.87,31.54h.36l.99,1.72,.29,.57h.02c-.02-.28-.04-.58-.04-.87v-1.42h.33v2.73h-.36l-.99-1.72-.29-.56h-.02c.02,.28,.04,.57,.04,.85v1.43h-.33v-2.73Z"/>
  <path d="M17.77,33.92l.21-.24c.2,.2,.47,.34,.75,.34,.36,0,.57-.18,.57-.44,0-.28-.2-.37-.46-.48l-.39-.17c-.25-.11-.55-.3-.55-.7s.36-.73,.86-.73c.32,0,.61,.14,.8,.34l-.18,.22c-.17-.16-.37-.26-.62-.26-.31,0-.51,.16-.51,.4,0,.26,.24,.36,.45,.45l.39,.17c.32,.14,.56,.32,.56,.73,0,.43-.36,.78-.93,.78-.38,0-.72-.16-.96-.41Z"/>
  <path d="M20.61,31.54h1.58v.29h-1.23v.92h1.04v.29h-1.04v1.22h-.35v-2.73Z"/>
  <path d="M22.88,32.9c0-.88,.48-1.41,1.17-1.41s1.17,.53,1.17,1.41-.48,1.43-1.17,1.43-1.17-.55-1.17-1.43Zm1.98,0c0-.68-.32-1.1-.81-1.1s-.81,.42-.81,1.1,.32,1.12,.81,1.12,.81-.44,.81-1.12Z"/>
  <path d="M26.21,31.54h.86c.56,0,.96,.2,.96,.77s-.4,.81-.96,.81h-.51v1.16h-.35v-2.73Zm.81,1.3c.43,0,.66-.17,.66-.53s-.23-.49-.66-.49h-.46v1.01h.46Zm-.02,.19l.27-.18,.83,1.43h-.39l-.71-1.25Z"/>
  <path d="M29,31.54h.42l.52,1.46c.07,.19,.13,.38,.19,.57h.02c.07-.19,.12-.38,.19-.57l.52-1.46h.42v2.73h-.32v-1.51c0-.24,.03-.57,.04-.81h-.02l-.22,.62-.51,1.41h-.23l-.52-1.41-.22-.62h-.02c.02,.24,.04,.57,.04,.81v1.51h-.31v-2.73Z"/>
  <path d="M33,31.54h.39l.92,2.73h-.37l-.48-1.53c-.1-.31-.19-.61-.27-.92h-.02c-.08,.32-.17,.62-.27,.92l-.48,1.53h-.35l.92-2.73Zm-.44,1.62h1.26v.28h-1.26v-.28Z"/>
  <path d="M35.1,31.54h.68c.84,0,1.29,.49,1.29,1.36s-.45,1.38-1.28,1.38h-.7v-2.73Zm.66,2.45c.64,0,.96-.4,.96-1.09s-.32-1.07-.96-1.07h-.31v2.16h.31Z"/>
  <path d="M37.91,32.9c0-.88,.48-1.41,1.17-1.41s1.17,.53,1.17,1.41-.48,1.43-1.17,1.43-1.17-.55-1.17-1.43Zm1.98,0c0-.68-.32-1.1-.81-1.1s-.81,.42-.81,1.1,.32,1.12,.81,1.12,.81-.44,.81-1.12Z"/>
  <path d="M41.25,31.54h.86c.56,0,.96,.2,.96,.77s-.4,.81-.96,.81h-.51v1.16h-.35v-2.73Zm.81,1.3c.43,0,.66-.17,.66-.53s-.23-.49-.66-.49h-.46v1.01h.46Zm-.02,.19l.27-.18,.83,1.43h-.39l-.71-1.25Z"/>
  <path d="M44.03,31.54h1.58v.29h-1.23v.86h1.04v.29h-1.04v.99h1.27v.29h-1.62v-2.73Z"/>
  <path d="M46.44,33.92l.21-.24c.2,.2,.47,.34,.75,.34,.36,0,.57-.18,.57-.44,0-.28-.2-.37-.46-.48l-.39-.17c-.25-.11-.55-.3-.55-.7s.36-.73,.86-.73c.32,0,.61,.14,.8,.34l-.18,.22c-.17-.16-.37-.26-.62-.26-.31,0-.51,.16-.51,.4,0,.26,.24,.36,.45,.45l.39,.17c.32,.14,.56,.32,.56,.73,0,.43-.36,.78-.93,.78-.38,0-.72-.16-.96-.41Z"/>
  <path d="M50.32,33.92l.21-.24c.2,.2,.47,.34,.75,.34,.36,0,.57-.18,.57-.44,0-.28-.2-.37-.46-.48l-.39-.17c-.25-.11-.55-.3-.55-.7s.36-.73,.86-.73c.32,0,.61,.14,.8,.34l-.18,.22c-.17-.16-.37-.26-.62-.26-.31,0-.51,.16-.51,.4,0,.26,.24,.36,.45,.45l.39,.17c.32,.14,.56,.32,.56,.73,0,.43-.36,.78-.93,.78-.38,0-.72-.16-.96-.41Z"/>
  <path d="M53.05,34.07c0-.16,.11-.26,.25-.26s.25,.11,.25,.26-.11,.26-.25,.26-.25-.11-.25-.26Z"/>
  <path d="M55.17,31.54h.39l.92,2.73h-.37l-.48-1.53c-.1-.31-.19-.61-.27-.92h-.02c-.08,.32-.17,.62-.27,.92l-.48,1.53h-.35l.92-2.73Zm-.44,1.62h1.26v.28h-1.26v-.28Z"/>
  <path d="M57.18,34.07c0-.16,.11-.26,.25-.26s.25,.11,.25,.26-.11,.26-.25,.26-.25-.11-.25-.26Z"/>
  <path d="M59.99,31.54h.68c.84,0,1.29,.49,1.29,1.36s-.45,1.38-1.28,1.38h-.7v-2.73Zm.66,2.45c.64,0,.96-.4,.96-1.09s-.32-1.07-.96-1.07h-.31v2.16h.31Z"/>
  <path d="M62.96,31.54h1.58v.29h-1.23v.86h1.04v.29h-1.04v.99h1.27v.29h-1.62v-2.73Z"/>
  <path d="M66.65,32.91c0-.88,.52-1.42,1.21-1.42,.33,0,.59,.16,.75,.34l-.19,.23c-.14-.15-.32-.26-.55-.26-.52,0-.86,.42-.86,1.1s.33,1.12,.85,1.12c.26,0,.46-.11,.63-.31l.19,.22c-.22,.25-.48,.39-.84,.39-.68,0-1.19-.53-1.19-1.41Z"/>
  <path d="M69.5,34.07c0-.16,.11-.26,.25-.26s.25,.11,.25,.26-.11,.26-.25,.26-.25-.11-.25-.26Z"/>
  <path d="M70.41,31.54h.37l.44,1.48c.1,.32,.16,.58,.26,.9h.02c.1-.32,.17-.58,.26-.9l.44-1.48h.35l-.87,2.73h-.4l-.87-2.73Z"/>
  <path d="M72.97,34.07c0-.16,.11-.26,.25-.26s.25,.11,.25,.26-.11,.26-.25,.26-.25-.11-.25-.26Z"/>
</svg>